<svg width="186" height="177" viewBox="0 0 186 177" fill="none" xmlns="http://www.w3.org/2000/svg">
<path fill-rule="evenodd" clip-rule="evenodd" d="M108.904 81.8333L101.908 71.5997H98.4324L107.428 83.736L100.956 91.4545C100.956 91.4545 101.798 91.2221 102.526 91.2776C103.253 91.3332 103.524 91.4545 103.524 91.4545L118.183 71.5997C118.183 71.5997 117.315 71.7925 116.918 71.7766C116.52 71.7585 115.945 71.5997 115.945 71.5997L108.904 81.8333ZM87.1183 76.073C86.8327 71.6553 81.264 71.5997 81.264 71.5997H71.7457V91.4545H74.4109V81.7789H76.0764L85.2618 91.4545C85.2618 91.4545 86.1823 91.2992 86.7767 91.2776C87.3721 91.2549 88.8311 91.4545 88.8311 91.4545L79.8841 81.7233C87.7851 80.2118 87.1183 76.073 87.1183 76.073ZM74.4592 80.7152V72.6055H80.0279C80.0279 72.6055 84.0257 72.6633 84.264 76.242C84.264 76.242 84.6452 80.324 79.4093 80.8286L74.4592 80.7152ZM52.0897 81.8333L45.0938 71.5997H41.619L50.6143 83.736L44.1414 91.4545C44.1414 91.4545 44.8024 91.2992 45.529 91.2776C46.2556 91.2561 46.711 91.4545 46.711 91.4545L61.3696 71.5997C61.3696 71.5997 60.4674 71.7925 60.0708 71.7766C59.6742 71.7585 59.1319 71.5997 59.1319 71.5997L52.0897 81.8333ZM27.8173 71.5997L17.0137 87.1468L7.01974 71.6542C6.63859 71.0407 6.30568 71.6542 6.30568 71.6542L2.73633 91.662C2.73633 91.662 3.29986 91.4851 3.75821 91.5248C4.21753 91.5645 4.64018 91.5645 4.64018 91.5645L6.5913 76.7443C6.68683 75.6263 7.11527 76.242 7.11527 76.242L16.1578 91.1177L26.009 76.6343C26.4374 76.1297 26.4847 76.8577 26.4847 76.8577L28.2458 91.3989C28.2458 91.3989 29.0708 91.2663 29.6662 91.2221C30.2606 91.1778 31.2921 91.3989 31.2921 91.3989L28.4841 72.1021C28.3886 71.0963 27.8173 71.5997 27.8173 71.5997ZM136.234 72.0465L125.669 91.4534L126.703 91.2765L127.619 91.4534L131.238 83.9594H140.661L144.182 91.4534C144.182 91.4534 144.713 91.3321 145.572 91.2538C146.298 91.1869 147.466 91.4534 147.466 91.4534L137.423 72.1021C137.276 71.4115 136.567 71.1518 136.234 72.0465ZM131.95 82.7858L135.95 75.2918L139.947 82.7291L131.95 82.7858ZM183.256 80.9386C182.446 72.4388 173.784 71.5997 173.784 71.5997H161.078V91.4545H172.12C184.018 90.2775 183.256 80.9386 183.256 80.9386ZM172.357 90.502L163.98 90.2786V72.7178H171.549C171.549 72.7178 179.924 72.6044 180.114 80.8831C180.114 80.8831 180.591 89.5518 172.357 90.502ZM166.551 63.8291C97.4462 18.5044 22.6307 60.9274 22.6307 60.9274C109.441 28.9999 146.563 63.8291 146.563 63.8291H166.551Z" fill="white"/>
</svg>
